# xmcd CD database file
#
# Track frame offsets:
#	150
#	14427
#	27007
#	37170
#	52447
#	64940
#	79140
#	93875
#	109227
#	122902
#	132660
#	142615
#	158467
#	172492
#	187720
#	203707
#	218647
#	234962
#	251807
#	261982
#
# Disc length: 3664 seconds
#
# Revision: 0
# Processed by: cddbd v1.4PL0 Copyright (c) Steve Scherf et al.
# Submitted via: CDex 1.50Beta7
#
DISCID=200e4e14
DTITLE=vaious - Rockin' At The Barn vol 2
DYEAR=2001
DGENRE=Country
TTITLE0=Scott McClatchy - My Family's Land
TTITLE1=Jimbob Convoy - Bride Oblivia
TTITLE2=Jou Buck - Big Piece Of Wood
TTITLE3=Kevin Deal - Phone That Don't Ring
TTITLE4=Teri Joyce and The Tagalongs - Don't Look For Me 'Til You See Me Comin'
TTITLE5=The Mole Train - Go Fishin'
TTITLE6=Patrik Tanner and The Faraway Men - Dear DJ
TTITLE7=Harry Hayward - A Girl Named Johnny Cash
TTITLE8=Lee Marvelous - That Might Be She
TTITLE9=The Brooklyn Cowboys - Presence Of God
TTITLE10=The Highwaters - Stuck With Me
TTITLE11=Salamander 4 - Hear Me Moan
TTITLE12=West Coast Pinups - Dial Away My Tears
TTITLE13=Eddy Lawrence - I'd Rather Eat Dirt
TTITLE14=Jim Stringer and The AM Band - Long Time Gone
TTITLE15=Beth Williams - Dogs
TTITLE16=Pop Fonda - Stay With Me
TTITLE17=Teddy Larkin and Scary Wagon - Scary Wagon
TTITLE18=Steubenville Knights - Knockin' Down The Sun
TTITLE19=Silver Saddle - Gonna Get A Gun
EXTD=YEAR: 2001
EXTT0=
EXTT1=
EXTT2=
EXTT3=
EXTT4=
EXTT5=
EXTT6=
EXTT7=
EXTT8=
EXTT9=
EXTT10=
EXTT11=
EXTT12=
EXTT13=
EXTT14=
EXTT15=
EXTT16=
EXTT17=
EXTT18=
EXTT19=
PLAYORDER=
